<?xml version="1.0" encoding="UTF-8"?> <svg xmlns="http://www.w3.org/2000/svg" width="42" height="42" viewBox="0 0 42 42" fill="none"><rect width="42" height="42" rx="21" fill="#229ED9"></rect><path fill-rule="evenodd" clip-rule="evenodd" d="M25.9223 15.0706C24.8573 15.4528 11.7314 20.3719 11.5381 20.4613C10.8957 20.7583 10.8206 21.1506 11.3554 21.416C11.407 21.4416 12.2955 21.7187 13.3297 22.0319L15.2102 22.6012L19.4801 19.9956C21.8286 18.5625 23.7974 17.3738 23.8552 17.3542C24.0002 17.3049 24.125 17.3095 24.1832 17.3663C24.224 17.4061 24.2257 17.4261 24.1933 17.4845C24.1718 17.5232 22.6123 18.9047 20.7277 20.5546C18.8431 22.2045 17.296 23.5673 17.2898 23.5831C17.2836 23.5989 17.2198 24.4226 17.1481 25.4136L17.0178 27.2154L17.1594 27.1967C17.2373 27.1865 17.3607 27.1473 17.4336 27.1096C17.5065 27.0719 17.9972 26.6383 18.524 26.1461C19.0508 25.6539 19.5001 25.2443 19.5224 25.236C19.5446 25.2276 20.3836 25.8073 21.3867 26.5242C22.3897 27.241 23.289 27.863 23.385 27.9063C23.637 28.0199 23.9209 28.0311 24.1052 27.9349C24.2699 27.849 24.4308 27.6355 24.4985 27.4131C24.5247 27.3271 25.0981 24.7424 25.7729 21.6694C26.8962 16.553 26.9996 16.0577 27 15.7921C27.0004 15.5412 26.9897 15.4816 26.9208 15.3495C26.8722 15.2564 26.7893 15.1613 26.7083 15.1058C26.5231 14.9787 26.2166 14.965 25.9223 15.0706Z" fill="#F0F0F0"></path></svg> 