<?xml version="1.0" encoding="UTF-8"?> <svg xmlns="http://www.w3.org/2000/svg" width="42" height="42" viewBox="0 0 42 42" fill="none"><rect width="42" height="42" rx="21" fill="#3D3E4B"></rect><path d="M27.8749 16.998L23.6289 21.1519L27.8749 25.3057C27.9517 25.1477 27.9982 24.9731 27.9982 24.7866V17.5171C27.9982 17.3306 27.9517 17.156 27.8749 16.998Z" fill="#F22420"></path><path d="M26.7696 16.3086H15.2303C15.0409 16.3086 14.8636 16.3544 14.7031 16.43L20.13 21.7465C20.6098 22.219 21.3901 22.219 21.87 21.7465L27.2968 16.43C27.1364 16.3544 26.9591 16.3086 26.7696 16.3086Z" fill="#F22420"></path><path d="M14.1233 16.998C14.0466 17.156 14 17.3306 14 17.5171V24.7866C14 24.9731 14.0466 25.1478 14.1233 25.3057L18.3693 21.1519L14.1233 16.998Z" fill="#F22420"></path><path d="M23.0508 21.7236L22.45 22.3152C21.6504 23.1025 20.3495 23.1025 19.5499 22.3152L18.9491 21.7236L14.7031 25.8775C14.8636 25.953 15.0409 25.9989 15.2303 25.9989H26.7696C26.9591 25.9989 27.1364 25.953 27.2968 25.8775L23.0508 21.7236Z" fill="#F22420"></path></svg> 