<?xml version="1.0" encoding="UTF-8"?> <svg xmlns="http://www.w3.org/2000/svg" width="42" height="42" viewBox="0 0 42 42" fill="none"><rect width="42" height="42" rx="21" fill="#62C96E"></rect><path fill-rule="evenodd" clip-rule="evenodd" d="M20.4208 13.0052C19.2112 13.1229 18.299 13.3839 17.3097 13.8954C15.7994 14.6762 14.5799 15.9188 13.8258 17.445C13.5362 18.0314 13.3996 18.3908 13.2482 18.9659C13.0573 19.6907 13.0018 20.1313 13 20.9332C12.9992 21.3324 13.0157 21.7657 13.0381 21.9343C13.2089 23.2161 13.6115 24.3208 14.2848 25.355L14.5092 25.6997L14.0107 27.1692C13.7365 27.9774 13.5165 28.643 13.5218 28.6483C13.5271 28.6536 14.2129 28.4403 15.0457 28.1743C15.8786 27.9082 16.5711 27.6905 16.5847 27.6905C16.5984 27.6905 16.7269 27.7634 16.8704 27.8525C17.014 27.9416 17.3146 28.1021 17.5386 28.2091C19.5641 29.1771 21.8795 29.26 23.9535 28.4387C26.3034 27.5081 28.1083 25.4723 28.7526 23.0256C28.9499 22.2763 29 21.8655 29 20.9958C29 20.1261 28.9499 19.7153 28.7526 18.9659C27.9968 16.0957 25.6931 13.8646 22.7861 13.1877C22.2977 13.0739 21.7895 13.0163 21.1727 13.0047C20.8281 12.9983 20.4898 12.9984 20.4208 13.0052ZM18.5102 16.7174C18.562 16.7443 18.6347 16.8205 18.6717 16.8867C18.7651 17.0539 19.5267 18.8856 19.5489 18.9964C19.5773 19.1382 19.4385 19.3792 19.1271 19.7288C18.8021 20.0936 18.7323 20.2107 18.7612 20.3423C18.8137 20.581 19.5383 21.5405 19.9847 21.9625C20.6774 22.6172 21.7244 23.239 22.1909 23.2726C22.4308 23.2899 22.5182 23.2221 22.8851 22.7344C23.0516 22.5132 23.2291 22.2908 23.2797 22.2404C23.4005 22.1197 23.5799 22.0941 23.781 22.1689C24.0391 22.2648 25.6166 23.0319 25.7273 23.1154L25.8334 23.1953L25.8159 23.5267C25.7709 24.3777 25.472 24.8196 24.6815 25.2038C23.9298 25.5691 23.3415 25.5591 22.1897 25.1615C20.6444 24.6282 19.8242 24.1187 18.7128 23.0019C18.1566 22.4431 17.7614 21.9706 17.3094 21.3243C16.5645 20.2591 16.2789 19.4367 16.3639 18.6019C16.4321 17.9326 16.6663 17.4386 17.1393 16.9662C17.3681 16.7377 17.6676 16.6436 18.1182 16.6586C18.3094 16.665 18.4496 16.686 18.5102 16.7174Z" fill="#F0F0F0"></path></svg> 