<?xml version="1.0" encoding="UTF-8"?> <svg xmlns="http://www.w3.org/2000/svg" width="42" height="42" viewBox="0 0 42 42" fill="none"><rect width="42" height="42" rx="21" fill="#3D3E4B"></rect><path d="M27.9918 24.5756C27.867 25.5241 27.4012 26.3948 26.6814 27.0249C25.9615 27.6551 25.0369 28.0017 24.0802 28C18.5221 28 14 23.478 14 17.9199C13.9983 16.9632 14.3449 16.0386 14.9751 15.3187C15.6053 14.5989 16.4759 14.1331 17.4245 14.0083C17.6643 13.979 17.9072 14.028 18.1169 14.1481C18.3266 14.2683 18.4918 14.4529 18.5879 14.6747L20.0663 17.9752V17.9836C20.1399 18.1533 20.1703 18.3386 20.1547 18.5229C20.1392 18.7073 20.0783 18.8849 19.9774 19.0399C19.9648 19.0588 19.9515 19.0763 19.9375 19.0938L18.4801 20.8214C19.0044 21.8868 20.1188 22.9914 21.1982 23.5172L22.9021 22.0674C22.9188 22.0534 22.9363 22.0403 22.9546 22.0282C23.1095 21.9249 23.2877 21.8618 23.4731 21.8447C23.6585 21.8276 23.8453 21.857 24.0165 21.9302L24.0256 21.9344L27.3233 23.4121C27.5454 23.5079 27.7306 23.673 27.8511 23.8827C27.9716 24.0924 28.021 24.3355 27.9918 24.5756Z" fill="#F22420"></path></svg> 